<svg height="64" viewBox="0 0 64 64" width="64" xmlns="http://www.w3.org/2000/svg"><path d="M58.201 3.365a29.503 29.503 0 0 1-3.42 6.063A32.094 32.094 0 1 0 9.966 55.372l1.186 1.047a32.08 32.08 0 0 0 52.67-22.253c.874-8.17-1.524-18.509-5.62-30.801zm-43.67 52.193a2.744 2.744 0 1 1-.405-3.857 2.744 2.744 0 0 1 .405 3.857zm43.538-9.61c-7.92 10.55-24.831 6.992-35.672 7.502 0 0-1.922.113-3.857.43 0 0 .729-.31 1.663-.662 7.614-2.65 11.213-3.16 15.838-5.54 8.708-4.426 17.323-14.122 19.112-24.2-3.314 9.694-13.373 18.03-22.531 21.417-6.276 2.313-17.614 4.566-17.614 4.566l-.458-.245c-7.713-3.751-7.952-20.457 6.077-25.845 6.143-2.366 12.021-1.067 18.655-2.65 7.084-1.684 15.281-6.992 18.614-13.917 3.731 11.08 8.224 28.422.166 39.151z" fill="#68bd45"/></svg>